# File created by Blade
# Date/Time:  Wed Jan 21 16:02:01 2015
# Frame Rate: 120.000 fps
#------------------------------------------------------
:FULLY-SPECIFIED
:DEGREES
1937
root 17.978249 32.924526 -16.391545 -175.398762 -4.764306 -177.842460
Spine 15.435563 0.491039 7.531419
Head 49.967422 -1.858399 -2.537344
LeftShoulder -19.055954 -11.693471 3.650487
LeftArm -43.077956 38.843348 -91.262991
LeftForeArm -2.470937 -0.000000 87.380343
LeftHand -8.351590 -0.000000 -0.593683
LeftHandThumb1 -26.253704 0.000000 33.147579
RightShoulder -17.947672 -30.935323 -0.202951
RightArm 14.072139 -43.521592 49.367419
RightForeArm -10.827144 -0.000000 89.450556
RightHand 0.736840 0.000000 -13.895807
RightHandThumb1 -24.326973 -0.000000 -32.862282
LeftUpLeg 13.601585 -4.312772 -18.639436
LeftLeg 1.857888 -0.000000 -0.000000
LeftFoot -31.867124 18.543542 -12.364242
LeftToeBase 18.991939 -0.000000 -0.000000
RightUpLeg -19.183918 2.398142 20.277119
RightLeg -4.438708 -0.000000 0.000000
RightFoot -6.812986 -34.967028 6.956882
RightToeBase 16.576350 -0.000000 -0.000000
1938
root 17.988156 32.930778 -16.407064 -175.412190 -4.947019 -177.871161
Spine 14.871603 0.461395 7.583846
Head 49.220819 -1.855648 -2.462846
LeftShoulder -18.975817 -11.923263 3.645710
LeftArm -42.447798 38.198300 -90.506391
LeftForeArm -1.391508 0.000000 86.791984
LeftHand -8.262994 -0.000000 -2.156554
LeftHandThumb1 -26.253704 0.000000 33.147579
RightShoulder -17.971286 -30.783637 -0.177281
RightArm 14.280952 -43.465617 48.850868
RightForeArm -12.385786 -0.000000 88.991314
RightHand 0.738216 -0.000000 -14.494950
RightHandThumb1 -24.326973 -0.000000 -32.862282
LeftUpLeg 13.649670 -4.403993 -18.612062
LeftLeg 1.903872 -0.000000 -0.000000
LeftFoot -31.825130 18.496192 -12.371453
LeftToeBase 18.623434 -0.000000 -0.000000
RightUpLeg -19.174196 2.233097 20.271609
RightLeg -4.460789 -0.000000 0.000000
RightFoot -6.635633 -34.902466 6.733473
RightToeBase 16.767662 -0.000000 -0.000000
1939
root 18.000376 32.935297 -16.422915 -175.400176 -5.137496 -177.912732
Spine 14.229484 0.499630 7.596179
Head 48.488651 -1.945911 -2.264013
LeftShoulder -18.828767 -12.181725 3.665808
LeftArm -41.921990 37.630643 -89.916126
LeftForeArm 0.117119 -0.000000 86.162175
LeftHand -8.084001 -0.000000 -3.231061
LeftHandThumb1 -26.253704 0.000000 33.147579
RightShoulder -17.974946 -30.540653 -0.115540
RightArm 14.304892 -43.304201 48.460775
RightForeArm -13.538079 -0.000000 88.466840
RightHand 0.994380 -0.000000 -14.557894
RightHandThumb1 -24.326973 -0.000000 -32.862282
LeftUpLeg 13.668008 -4.504667 -18.590177
LeftLeg 1.962100 -0.000000 -0.000000
LeftFoot -31.813640 18.419208 -12.332027
LeftToeBase 18.655974 -0.000000 -0.000000
RightUpLeg -19.195528 2.069032 20.261397
RightLeg -4.479448 -0.000000 0.000000
RightFoot -6.469332 -34.853367 6.499622
RightToeBase 17.264472 -0.000000 -0.000000
1940
root 18.009404 32.938945 -16.435251 -175.395844 -5.326518 -177.985875
Spine 13.579720 0.489821 7.576862
Head 47.715741 -1.959100 -2.136537
LeftShoulder -18.708317 -12.418343 3.666832
LeftArm -41.321738 37.060918 -89.311550
LeftForeArm 1.941466 -0.000000 85.469491
LeftHand -8.035509 -0.000000 -3.896395
LeftHandThumb1 -26.253704 0.000000 33.147579
RightShoulder -17.868284 -30.251334 -0.139109
RightArm 14.280868 -43.091560 48.168624
RightForeArm -14.347811 0.000000 87.829734
RightHand 1.428032 -0.000000 -14.581186
RightHandThumb1 -24.326973 -0.000000 -32.862282
LeftUpLeg 13.679708 -4.612351 -18.609337
LeftLeg 2.044376 -0.000000 -0.000000
LeftFoot -31.791247 18.343729 -12.323097
LeftToeBase 18.679271 -0.000000 -0.000000
RightUpLeg -19.231603 1.897893 20.216099
RightLeg -4.473441 -0.000000 0.000000
RightFoot -6.304695 -34.790664 6.259698
RightToeBase 18.122615 -0.000000 -0.000000
1941
root 18.022060 32.942636 -16.449917 -175.435740 -5.523109 -178.044960
Spine 12.967105 0.469035 7.577041
Head 46.927278 -1.983463 -2.081927
LeftShoulder -18.569483 -12.650505 3.616966
LeftArm -40.614463 36.517737 -88.624486
LeftForeArm 3.388272 -0.000000 84.734292
LeftHand -7.851662 0.000000 -4.557861
LeftHandThumb1 -26.253704 0.000000 33.147579
RightShoulder -17.804673 -30.005251 -0.133492
RightArm 14.451595 -42.882511 47.769338
RightForeArm -15.211062 -0.000000 87.069986
RightHand 1.549131 -0.000000 -15.065253
RightHandThumb1 -24.326973 -0.000000 -32.862282
LeftUpLeg 13.738427 -4.715559 -18.611006
LeftLeg 2.124339 -0.000000 -0.000000
LeftFoot -31.777755 18.282181 -12.281826
LeftToeBase 18.744972 -0.000000 -0.000000
RightUpLeg -19.230263 1.711136 20.184545
RightLeg -4.457614 -0.000000 0.000000
RightFoot -5.893487 -34.748869 5.553207
RightToeBase 19.056247 -0.000000 -0.000000
1942
root 18.038310 32.945410 -16.468198 -175.503613 -5.730765 -178.112508
Spine 12.359201 0.405675 7.557346
Head 46.071622 -1.975615 -2.066007
LeftShoulder -18.455217 -13.026713 3.591254
LeftArm -40.066870 35.927426 -88.017987
LeftForeArm 4.944876 -0.000000 83.948956
LeftHand -7.813055 -0.000000 -5.138601
LeftHandThumb1 -26.253704 0.000000 33.147579
RightShoulder -17.666288 -29.771661 -0.117240
RightArm 14.566988 -42.526817 47.447894
RightForeArm -15.802227 -0.000000 86.279344
RightHand 1.745846 -0.000000 -15.055117
RightHandThumb1 -24.326973 -0.000000 -32.862282
LeftUpLeg 13.826795 -4.794414 -18.613638
LeftLeg 2.213544 -0.000000 -0.000000
LeftFoot -31.765057 18.199727 -12.259843
LeftToeBase 18.627189 -0.000000 -0.000000
RightUpLeg -19.200706 1.468529 20.167611
RightLeg -4.448724 -0.000000 0.000000
RightFoot -5.765633 -34.677251 5.359477
RightToeBase 19.972292 -0.000000 -0.000000
